Coordinates
version=1
nRows=4
nColumns=114
inDegrees=yes

Units are S.I. units (second, meters, Newtons, ...)
If the header above contains a line with 'inDegrees', this indicates whether rotational values are in degrees (yes) or radians (no).

endheader 
time	pelvis_tilt	pelvis_list	pelvis_rotation	pelvis_tx	pelvis_ty	pelvis_tz	hip_flexion_l	hip_adduction_l	hip_rotation_l	hip_flexion_r	hip_adduction_r	hip_rotation_r	knee_angle_l	knee_angle_r	ankle_angle_l	ankle_angle_r	subtalar_angle_l	subtalar_angle_r	mtp_angle_l	mtp_angle_r	lumbar_extension	lumbar_bending	lumbar_rotation	arm_flex_l	arm_add_l	arm_rot_l	arm_flex_r	arm_add_r	arm_rot_r	elbow_flex_l	elbow_flex_r	pro_sup_l	pro_sup_r	addbrev_l/activation	addlong_l/activation	addmagDist_l/activation	addmagIsch_l/activation	addmagMid_l/activation	addmagProx_l/activation	bflh_l/activation	bfsh_l/activation	edl_l/activation	ehl_l/activation	fdl_l/activation	fhl_l/activation	gaslat_l/activation	gasmed_l/activation	glmax1_l/activation	glmax2_l/activation	glmax3_l/activation	glmed1_l/activation	glmed2_l/activation	glmed3_l/activation	glmin1_l/activation	glmin2_l/activation	glmin3_l/activation	grac_l/activation	iliacus_l/activation	perbrev_l/activation	perlong_l/activation	piri_l/activation	psoas_l/activation	recfem_l/activation	sart_l/activation	semimem_l/activation	semiten_l/activation	soleus_l/activation	tfl_l/activation	tibant_l/activation	tibpost_l/activation	vasint_l/activation	vaslat_l/activation	vasmed_l/activation	addbrev_r/activation	addlong_r/activation	addmagDist_r/activation	addmagIsch_r/activation	addmagMid_r/activation	addmagProx_r/activation	bflh_r/activation	bfsh_r/activation	edl_r/activation	ehl_r/activation	fdl_r/activation	fhl_r/activation	gaslat_r/activation	gasmed_r/activation	glmax1_r/activation	glmax2_r/activation	glmax3_r/activation	glmed1_r/activation	glmed2_r/activation	glmed3_r/activation	glmin1_r/activation	glmin2_r/activation	glmin3_r/activation	grac_r/activation	iliacus_r/activation	perbrev_r/activation	perlong_r/activation	piri_r/activation	psoas_r/activation	recfem_r/activation	sart_r/activation	semimem_r/activation	semiten_r/activation	soleus_r/activation	tfl_r/activation	tibant_r/activation	tibpost_r/activation	vasint_r/activation	vaslat_r/activation	vasmed_r/activation	
          2.20000000	         -9.98333447	          3.39251591	        -34.36643051	          1.26348171	          0.86982250	          0.40504935	         28.57581109	        -12.98005062	         -2.64727717	         29.29594952	         -4.54186363	         -7.51621171	         46.46469473	         50.04492047	         24.36897637	         21.80019646	         -5.87456122	        -10.60108894	        -17.74646126	        -20.49598623	        -11.44326059	         -3.03243585	          1.23399969	         -9.70568466	        -14.51557151	         -2.87785562	        -14.80800031	        -22.94884309	          5.55357956	         38.46382482	         41.62629974	         79.62764526	         73.70264691	          0.02253868	          0.03586117	          0.03258443	          0.02602146	          0.03195760	          0.04079127	          0.05851936	          0.01348019	          0.01460356	          0.01264866	          0.05333410	          0.10779974	          0.03357829	          0.05669014	          0.01451464	          0.11587380	          0.16945898	          0.01005931	          0.01009915	          0.01010240	          0.01021379	          0.01022054	          0.01022100	          0.01252649	          0.01593903	          0.10493865	          0.02857111	          0.21105725	          0.02456315	          0.42225578	          0.01535020	          0.03555300	          0.02305663	          0.50324964	          0.01021418	          0.01745195	          0.04229185	          0.19715053	          0.51452992	          0.27524236	          0.01258167	          0.03108630	          0.01441746	          0.01446952	          0.01435127	          0.01387093	          0.19348507	          0.02622306	          0.03293768	          0.01339126	          0.02399957	          0.05777509	          0.13165045	          0.15242725	          0.10729598	          0.15802882	          0.01473200	          0.12527230	          0.10854063	          0.12452854	          0.02917567	          0.03143821	          0.05333302	          0.01440804	          0.03946612	          0.08471406	          0.07131775	          0.10803070	          0.04579292	          0.27046584	          0.03931215	          0.16594144	          0.01448006	          0.37635664	          0.10008468	          0.02796072	          0.14118077	          0.01007947	          0.26946241	          0.01006845	
          2.21000000	        -10.18278510	          3.56990433	        -34.54772773	          1.25972866	          0.86017449	          0.40240829	         30.31584935	        -13.30800663	         -2.67922424	         30.93855441	         -4.66917252	         -7.03917772	         48.98455040	         52.85886874	         26.14078326	         24.29658798	         -5.42978134	        -10.57703928	        -18.15028380	        -19.61599078	        -11.72915294	         -3.00601920	          1.59385401	         -8.60784250	        -14.02765484	         -3.53449814	        -13.66024090	        -22.29566233	          5.13535454	         36.96759363	         39.45016588	         79.81725846	         73.91295442	          0.01878891	          0.02988839	          0.02715879	          0.02168820	          0.02663755	          0.03401253	          0.04877251	          0.01150696	          0.01220834	          0.01242584	          0.05686471	          0.08990332	          0.04067284	          0.04724971	          0.01723807	          0.16563027	          0.14122564	          0.01002143	          0.01014422	          0.01441552	          0.01005333	          0.01030306	          0.01440147	          0.01045877	          0.01330359	          0.08745787	          0.02381169	          0.18365402	          0.02056521	          0.35190163	          0.01796174	          0.02962949	          0.01922052	          0.48972837	          0.01439201	          0.01498116	          0.03524437	          0.26005100	          0.56189070	          0.31511788	          0.01054331	          0.02591167	          0.01202223	          0.01206373	          0.01197226	          0.01162021	          0.16124506	          0.02187212	          0.02746242	          0.01122464	          0.02642042	          0.04821823	          0.10973139	          0.12703212	          0.08942764	          0.13169661	          0.01228063	          0.10454689	          0.09051316	          0.10381393	          0.03026847	          0.08069450	          0.12195317	          0.01203027	          0.06619077	          0.07060139	          0.05943608	          0.18872500	          0.04797431	          0.22540306	          0.03287746	          0.13828898	          0.01207294	          0.31364925	          0.09722894	          0.02331332	          0.12450029	          0.06609997	          0.41884047	          0.03174503	
          2.22000000	        -10.26911351	          3.65329676	        -34.70949459	          1.25612157	          0.85265922	          0.39994280	         31.72120117	        -13.60357076	         -2.67924234	         32.23535090	         -4.77785091	         -6.75370208	         51.07396222	         54.72931212	         27.30537887	         25.91554423	         -5.10657457	        -10.39744150	        -18.58637521	        -19.39828299	        -12.18997583	         -2.93337262	          2.00190207	         -7.26698704	        -13.48664407	         -4.09796540	        -12.34077634	        -21.59500902	          4.79717125	         35.24182413	         37.00444642	         80.03160652	         74.12577831	          0.01572829	          0.02529173	          0.02265572	          0.01808763	          0.02224325	          0.07384710	          0.09782210	          0.01092736	          0.01046127	          0.01161945	          0.04740513	          0.07492849	          0.03390731	          0.03938692	          0.01438079	          0.13803338	          0.11771737	          0.01002545	          0.01004962	          0.01202648	          0.01007474	          0.01013232	          0.01203821	          0.01032295	          0.01140053	          0.11116084	          0.01986457	          0.15304831	          0.01986201	          0.29326176	          0.01498762	          0.02471043	          0.01604159	          0.43458690	          0.01202632	          0.01250187	          0.02967553	          0.33276977	          0.47650176	          0.27429958	          0.01004621	          0.02159927	          0.01004606	          0.01007535	          0.01003422	          0.01007007	          0.19917720	          0.01824471	          0.02292342	          0.01018480	          0.02202523	          0.04020622	          0.09144547	          0.10586186	          0.07497039	          0.10979793	          0.01024428	          0.09549480	          0.13970954	          0.17991403	          0.02601216	          0.06760681	          0.10177992	          0.01008581	          0.05517486	          0.05884874	          0.04953241	          0.16154316	          0.03999269	          0.18784071	          0.02742105	          0.11525577	          0.01007700	          0.28578439	          0.08112670	          0.01947022	          0.10376564	          0.16593151	          0.41678231	          0.19013648	
          2.23000000	        -10.26954072	          3.66533299	        -34.83529167	          1.25252317	          0.84758335	          0.39758967	         32.84871870	        -13.86620392	         -2.66283911	         33.16938901	         -4.89406686	         -6.64944059	         52.76916346	         56.03944617	         28.03197014	         27.00548519	         -4.87670135	        -10.16975396	        -18.66883000	        -19.07699437	        -12.83671792	         -2.84309900	          2.41429146	         -5.78932095	        -12.90988067	         -4.59998986	        -10.85970916	        -20.86506225	          4.51566060	         33.49754709	         34.56294237	         79.98495425	         74.13067450	          0.02493138	          0.02487073	          0.02874324	          0.02512857	          0.03092414	          0.06169356	          0.08152346	          0.01008273	          0.01035332	          0.01018293	          0.03957451	          0.06247084	          0.02827003	          0.03283200	          0.01200620	          0.11504041	          0.09820540	          0.01006419	          0.01005097	          0.01004411	          0.01024193	          0.01010205	          0.01009363	          0.02047302	          0.01035243	          0.09266204	          0.04193021	          0.13382837	          0.01658390	          0.24440718	          0.01250168	          0.06126007	          0.06153973	          0.36683020	          0.01006161	          0.01042863	          0.02473044	          0.46144321	          0.45949455	          0.27256428	          0.01009384	          0.01801132	          0.01887815	          0.02046215	          0.01172413	          0.01010157	          0.22948056	          0.01522873	          0.04668492	          0.03569250	          0.01838057	          0.03350959	          0.07622041	          0.19252931	          0.06253085	          0.09152684	          0.02075773	          0.07958750	          0.11643840	          0.14994797	          0.02170526	          0.05636634	          0.08484060	          0.01006713	          0.04599195	          0.04907485	          0.04871692	          0.13465439	          0.03334202	          0.15653523	          0.02286961	          0.19941773	          0.01008031	          0.23815406	          0.06763841	          0.04515695	          0.08647515	          0.13828155	          0.34731882	          0.15845071	
